<?xml version="1.0" encoding="utf-8"?>
<!-- Generator: Adobe Illustrator 27.5.0, SVG Export Plug-In . SVG Version: 6.00 Build 0)  -->
<svg version="1.1" xmlns="http://www.w3.org/2000/svg" xmlns:xlink="http://www.w3.org/1999/xlink" x="0px" y="0px"
	 viewBox="0 0 500 500" style="enable-background:new 0 0 500 500;" xml:space="preserve">
<g id="Background_Complete">
	<g>
		<rect x="416.779" y="398.494" style="fill:#EBEBEB;" width="33.122" height="0.25"/>
		<rect x="322.527" y="401.208" style="fill:#EBEBEB;" width="8.693" height="0.25"/>
		<rect x="396.586" y="389.208" style="fill:#EBEBEB;" width="19.192" height="0.25"/>
		<rect x="52.459" y="390.888" style="fill:#EBEBEB;" width="43.193" height="0.25"/>
		<rect x="104.556" y="390.888" style="fill:#EBEBEB;" width="6.333" height="0.25"/>
		<rect x="131.471" y="395.111" style="fill:#EBEBEB;" width="93.676" height="0.25"/>
		<path style="fill:#EBEBEB;" d="M237.014,337.8H43.915c-3.147,0-5.708-2.561-5.708-5.708V60.66c0-3.147,2.561-5.708,5.708-5.708
			h193.099c3.146,0,5.707,2.561,5.707,5.708v271.432C242.721,335.239,240.16,337.8,237.014,337.8z M43.915,55.203
			c-3.01,0-5.458,2.448-5.458,5.458v271.432c0,3.01,2.448,5.458,5.458,5.458h193.099c3.009,0,5.457-2.448,5.457-5.458V60.66
			c0-3.009-2.448-5.458-5.457-5.458H43.915z"/>
		<path style="fill:#EBEBEB;" d="M453.31,337.8H260.212c-3.147,0-5.707-2.561-5.707-5.708V60.66c0-3.147,2.561-5.708,5.707-5.708
			H453.31c3.148,0,5.708,2.561,5.708,5.708v271.432C459.019,335.239,456.458,337.8,453.31,337.8z M260.212,55.203
			c-3.009,0-5.457,2.448-5.457,5.458v271.432c0,3.01,2.448,5.458,5.457,5.458H453.31c3.01,0,5.458-2.448,5.458-5.458V60.66
			c0-3.009-2.448-5.458-5.458-5.458H260.212z"/>
		<rect y="382.398" style="fill:#EBEBEB;" width="500" height="0.25"/>
	</g>
	<g>
		<g>
			<path style="fill:#EBEBEB;" d="M140.572,375.939l0-77.133h31.334l0,77.133c0,3.573-2.907,6.479-6.48,6.479h-18.374
				C143.478,382.418,140.572,379.512,140.572,375.939z M144.572,302.806l0,73.133c0,1.367,1.112,2.479,2.479,2.479h18.374
				c1.368,0,2.48-1.112,2.48-2.479l0-73.133H144.572z"/>
		</g>
		<g>
			<path style="fill:#EBEBEB;" d="M70.895,375.939l0-77.133h31.333l0,77.133c0,3.573-2.907,6.479-6.479,6.479H77.374
				C73.802,382.418,70.895,379.512,70.895,375.939z M74.895,302.806l0,73.133c0,1.367,1.112,2.479,2.479,2.479h18.374
				c1.367,0,2.479-1.112,2.479-2.479l0-73.133H74.895z"/>
		</g>
		
			<rect x="69.809" y="276.279" transform="matrix(-1 -1.224647e-16 1.224647e-16 -1 215.9874 581.2451)" style="fill:#F5F5F5;" width="76.369" height="28.687"/>
		
			<rect x="141.2" y="276.279" transform="matrix(-1 -1.224647e-16 1.224647e-16 -1 313.7021 581.2451)" style="fill:#E6E6E6;" width="31.303" height="28.687"/>
		
			<rect x="65.932" y="269.706" transform="matrix(-1 -1.224647e-16 1.224647e-16 -1 206.4564 547.7758)" style="fill:#EBEBEB;" width="74.593" height="8.364"/>
		
			<rect x="139.368" y="269.706" transform="matrix(-1 -1.224647e-16 1.224647e-16 -1 315.7475 547.7758)" style="fill:#E6E6E6;" width="37.012" height="8.364"/>
		
			<rect x="75.949" y="282.851" transform="matrix(-1 -1.224647e-16 1.224647e-16 -1 211.0212 582.2022)" style="fill:#EBEBEB;" width="59.122" height="16.5"/>
		<circle style="fill:#FAFAFA;" cx="105.511" cy="291.101" r="3.283"/>
	</g>
	<g>
		
			<rect x="405.863" y="169.413" transform="matrix(-1 -1.224647e-16 1.224647e-16 -1 837.0863 551.8315)" style="fill:#E6E6E6;" width="25.36" height="213.005"/>
		
			<rect x="337.445" y="169.413" transform="matrix(-1 -1.224647e-16 1.224647e-16 -1 746.0775 551.8315)" style="fill:#F0F0F0;" width="71.187" height="213.005"/>
		
			<rect x="344.697" y="176.665" transform="matrix(-1 -1.224647e-16 1.224647e-16 -1 746.0775 410.0125)" style="fill:#FAFAFA;" width="56.683" height="56.683"/>
		<path style="fill:#E0E0E0;" d="M357.704,201.014h30.67c0.86,0,1.557-0.697,1.557-1.557l0,0c0-0.86-0.697-1.557-1.557-1.557h-30.67
			c-0.86,0-1.557,0.697-1.557,1.557l0,0C356.147,200.317,356.844,201.014,357.704,201.014z"/>
		<path style="fill:#E0E0E0;" d="M357.704,207.244h30.67c0.86,0,1.557-0.697,1.557-1.557l0,0c0-0.86-0.697-1.557-1.557-1.557h-30.67
			c-0.86,0-1.557,0.697-1.557,1.557l0,0C356.147,206.546,356.844,207.244,357.704,207.244z"/>
		<path style="fill:#E0E0E0;" d="M357.704,213.474h30.67c0.86,0,1.557-0.697,1.557-1.557v0c0-0.86-0.697-1.557-1.557-1.557h-30.67
			c-0.86,0-1.557,0.697-1.557,1.557v0C356.147,212.776,356.844,213.474,357.704,213.474z"/>
		<path style="fill:#E0E0E0;" d="M369.868,179.852h6.342c2.42,0,4.684-1.192,6.054-3.188l0,0h-18.45l0,0
			C365.183,178.66,367.448,179.852,369.868,179.852z"/>
		
			<rect x="344.697" y="238.774" transform="matrix(-1 -1.224647e-16 1.224647e-16 -1 746.0775 534.2319)" style="fill:#FAFAFA;" width="56.683" height="56.683"/>
		<path style="fill:#E0E0E0;" d="M357.704,263.124h30.67c0.86,0,1.557-0.697,1.557-1.557l0,0c0-0.86-0.697-1.557-1.557-1.557h-30.67
			c-0.86,0-1.557,0.697-1.557,1.557l0,0C356.147,262.427,356.844,263.124,357.704,263.124z"/>
		<path style="fill:#E0E0E0;" d="M357.704,269.354h30.67c0.86,0,1.557-0.697,1.557-1.557l0,0c0-0.86-0.697-1.557-1.557-1.557h-30.67
			c-0.86,0-1.557,0.697-1.557,1.557l0,0C356.147,268.656,356.844,269.354,357.704,269.354z"/>
		<path style="fill:#E0E0E0;" d="M357.704,275.583h30.67c0.86,0,1.557-0.697,1.557-1.557l0,0c0-0.86-0.697-1.557-1.557-1.557h-30.67
			c-0.86,0-1.557,0.697-1.557,1.557l0,0C356.147,274.886,356.844,275.583,357.704,275.583z"/>
		
			<rect x="344.697" y="300.884" transform="matrix(-1 -1.224647e-16 1.224647e-16 -1 746.0775 658.4515)" style="fill:#FAFAFA;" width="56.683" height="56.683"/>
		<path style="fill:#E0E0E0;" d="M357.704,325.233h30.67c0.86,0,1.557-0.697,1.557-1.557l0,0c0-0.86-0.697-1.557-1.557-1.557h-30.67
			c-0.86,0-1.557,0.697-1.557,1.557l0,0C356.147,324.536,356.844,325.233,357.704,325.233z"/>
		<path style="fill:#E0E0E0;" d="M357.704,331.463h30.67c0.86,0,1.557-0.697,1.557-1.557l0,0c0-0.86-0.697-1.558-1.557-1.558h-30.67
			c-0.86,0-1.557,0.697-1.557,1.558l0,0C356.147,330.766,356.844,331.463,357.704,331.463z"/>
		<path style="fill:#E0E0E0;" d="M357.704,337.693h30.67c0.86,0,1.557-0.697,1.557-1.558l0,0c0-0.86-0.697-1.557-1.557-1.557h-30.67
			c-0.86,0-1.557,0.697-1.557,1.557l0,0C356.147,336.996,356.844,337.693,357.704,337.693z"/>
		<path style="fill:#E0E0E0;" d="M369.868,241.99h6.342c2.42,0,4.684-1.192,6.054-3.188v0h-18.45v0
			C365.183,240.798,367.448,241.99,369.868,241.99z"/>
		<path style="fill:#E0E0E0;" d="M369.868,304.072h6.342c2.42,0,4.684-1.192,6.054-3.188l0,0h-18.45l0,0
			C365.183,302.879,367.448,304.072,369.868,304.072z"/>
	</g>
</g>
<g id="Background_Simple" style="display:none;">
	<g style="display:inline;">
		<path style="fill:#407BFF;" d="M102.434,69.915c-22.667,17.397-2.755,61.67,0.191,90.09c3.922,37.833-49,118.157-27.619,149.614
			c27.677,40.72,127.886-0.803,177.057,1.709c44.858,2.292,139.28,60.177,171.112,28.487
			c38.616-38.444-36.331-125.322-36.746-179.81c-0.264-34.685,26.25-96.043-0.181-118.504
			C340.35,2.499,249.326,102.983,190.143,91.8C162.298,86.539,124.914,52.662,102.434,69.915z"/>
		<path style="opacity:0.9;fill:#FFFFFF;" d="M102.434,69.915c-22.667,17.397-2.755,61.67,0.191,90.09
			c3.922,37.833-49,118.157-27.619,149.614c27.677,40.72,127.886-0.803,177.057,1.709c44.858,2.292,139.28,60.177,171.112,28.487
			c38.616-38.444-36.331-125.322-36.746-179.81c-0.264-34.685,26.25-96.043-0.181-118.504
			C340.35,2.499,249.326,102.983,190.143,91.8C162.298,86.539,124.914,52.662,102.434,69.915z"/>
	</g>
</g>
<g id="Shadow">
	<ellipse id="_x3C_Path_x3E__1_" style="fill:#F5F5F5;" cx="245.178" cy="412.391" rx="193.889" ry="11.323"/>
</g>
<g id="Graphics">
	<g>
		<g>
			<g>
				<path style="fill:#263238;" d="M162.516,254.665h-1.663c0-12.647-10.289-22.936-22.936-22.936s-22.936,10.289-22.936,22.936
					h-1.663c0-13.564,11.035-24.6,24.6-24.6S162.516,241.101,162.516,254.665z"/>
			</g>
			<g style="opacity:0.4;">
				<path style="fill:#FFFFFF;" d="M162.516,254.665h-1.663c0-12.647-10.289-22.936-22.936-22.936s-22.936,10.289-22.936,22.936
					h-1.663c0-13.564,11.035-24.6,24.6-24.6S162.516,241.101,162.516,254.665z"/>
			</g>
			<rect x="134.812" y="227.792" style="fill:#263238;" width="6.21" height="6.21"/>
			<rect x="111.044" y="250.673" style="fill:#263238;" width="6.21" height="6.21"/>
			<rect x="158.58" y="250.673" style="fill:#263238;" width="6.21" height="6.21"/>
		</g>
		<g>
			<path style="fill:#407BFF;" d="M148.312,250.109l-9.731-13.658v11.309c1.056,0.292,1.835,1.25,1.835,2.399
				c0,1.38-1.119,2.499-2.499,2.499c-1.38,0-2.499-1.119-2.499-2.499c0-1.149,0.78-2.106,1.835-2.399v-11.308l-9.731,13.657
				c-1.792,2.515-1.199,6.008,1.322,7.791l3.62,2.56v4.338h10.905v-4.338l3.62-2.56
				C149.511,256.117,150.104,252.624,148.312,250.109z"/>
			<path style="opacity:0.5;fill:#FFFFFF;" d="M148.312,250.109l-9.731-13.658v11.309c1.056,0.292,1.835,1.25,1.835,2.399
				c0,1.38-1.119,2.499-2.499,2.499c-1.38,0-2.499-1.119-2.499-2.499c0-1.149,0.78-2.106,1.835-2.399v-11.308l-9.731,13.657
				c-1.792,2.515-1.199,6.008,1.322,7.791l3.62,2.56v4.338h10.905v-4.338l3.62-2.56
				C149.511,256.117,150.104,252.624,148.312,250.109z"/>
		</g>
	</g>
	<g>
		<g>
			<rect x="84.457" y="217.398" style="fill:#407BFF;" width="9.305" height="7.212"/>
			<rect x="84.457" y="217.398" style="opacity:0.3;fill:#FFFFFF;" width="9.305" height="7.212"/>
		</g>
		<path style="fill:#407BFF;" d="M104.485,219.336h-30.75c-2.215,0-4.011-1.796-4.011-4.011v-20.204
			c0-2.215,1.796-4.011,4.011-4.011h30.75c2.215,0,4.011,1.796,4.011,4.011v20.204C108.496,217.54,106.7,219.336,104.485,219.336z"
			/>
		<path style="opacity:0.5;fill:#FFFFFF;" d="M104.485,219.336h-30.75c-2.215,0-4.011-1.796-4.011-4.011v-20.204
			c0-2.215,1.796-4.011,4.011-4.011h30.75c2.215,0,4.011,1.796,4.011,4.011v20.204C108.496,217.54,106.7,219.336,104.485,219.336z"
			/>
		<path style="opacity:0.2;" d="M104.763,213.753c0.519,0,0.941-0.422,0.941-0.94v-17.97c0-0.519-0.422-0.941-0.941-0.941H73.456
			c-0.519,0-0.941,0.422-0.941,0.941v17.97c0,0.519,0.422,0.94,0.941,0.94H104.763z"/>
		<g>
			<path style="fill:#407BFF;" d="M96.713,227.191H81.507c-1.004,0-1.819-0.814-1.819-1.819v-0.131c0-1.004,0.814-1.819,1.819-1.819
				h15.206c1.004,0,1.819,0.814,1.819,1.819v0.131C98.531,226.377,97.717,227.191,96.713,227.191z"/>
			<path style="opacity:0.5;fill:#FFFFFF;" d="M96.713,227.191H81.507c-1.004,0-1.819-0.814-1.819-1.819v-0.131
				c0-1.004,0.814-1.819,1.819-1.819h15.206c1.004,0,1.819,0.814,1.819,1.819v0.131C98.531,226.377,97.717,227.191,96.713,227.191z"
				/>
		</g>
	</g>
</g>
<g id="Desk">
	<g>
		<g>
			<rect x="136.881" y="275.915" style="fill:#263238;" width="211.53" height="4.181"/>
			<rect x="136.881" y="275.915" style="opacity:0.3;fill:#FFFFFF;" width="211.53" height="4.181"/>
			<rect x="233.068" y="275.915" style="opacity:0.2;" width="115.344" height="4.181"/>
		</g>
		<g>
			<g>
				<g>
					<rect x="142.878" y="280.096" style="fill:#263238;" width="6.624" height="134.561"/>
					<rect x="142.878" y="280.096" style="opacity:0.5;fill:#FFFFFF;" width="6.624" height="134.561"/>
					<rect x="142.878" y="280.096" style="opacity:0.2;" width="6.624" height="8.798"/>
				</g>
				<g>
					<rect x="220.279" y="280.096" style="fill:#263238;" width="6.623" height="134.561"/>
					<rect x="220.279" y="280.096" style="opacity:0.5;fill:#FFFFFF;" width="6.623" height="134.561"/>
					<rect x="220.279" y="280.096" style="opacity:0.2;" width="6.623" height="8.798"/>
				</g>
			</g>
			<g>
				<g>
					<rect x="258.362" y="280.096" style="fill:#263238;" width="6.623" height="134.561"/>
					<rect x="258.362" y="280.096" style="opacity:0.5;fill:#FFFFFF;" width="6.623" height="134.561"/>
					<rect x="258.362" y="280.096" style="opacity:0.2;" width="6.623" height="8.798"/>
				</g>
				<g>
					<rect x="335.763" y="280.096" style="fill:#263238;" width="6.623" height="134.561"/>
					<rect x="335.763" y="280.096" style="opacity:0.5;fill:#FFFFFF;" width="6.623" height="134.561"/>
					<rect x="335.763" y="280.096" style="opacity:0.2;" width="6.624" height="8.798"/>
				</g>
			</g>
			<g>
				<rect x="131.467" y="271.735" style="fill:#407BFF;" width="222.359" height="4.181"/>
				<rect x="233.254" y="271.735" style="opacity:0.3;" width="120.572" height="4.181"/>
			</g>
		</g>
	</g>
</g>
<g id="Plant">
	<g>
		<g>
			<g>
				<g>
					<path style="fill:#407BFF;" d="M164.93,381.054l-0.777-0.052c1.563-23.175-1.885-30.705-5.053-32.94
						c-1.86-1.314-3.505-0.624-3.521-0.616l-0.31-0.714c0.084-0.035,2.065-0.867,4.279,0.694
						C162.88,349.777,166.517,357.518,164.93,381.054z"/>
				</g>
				<g>
					<path style="fill:#407BFF;" d="M160.527,378.709c-0.765-19.715,2.652-27.07,5.654-29.768c1.873-1.684,3.496-1.467,3.565-1.46
						l-0.109,0.771c-0.054-0.009-1.376-0.157-2.978,1.306c-2.857,2.611-6.105,9.782-5.355,29.12L160.527,378.709z"/>
				</g>
				<g>
					<path style="fill:#407BFF;" d="M163.85,378.72l-0.777-0.053c0.802-11.843-0.66-18.891-4.228-20.381
						c-4.656-1.945-11.612,5.843-11.681,5.921l-0.584-0.515c0.299-0.339,7.394-8.282,12.564-6.124
						C163.105,359.221,164.688,366.338,163.85,378.72z"/>
				</g>
				<g>
					<path style="fill:#407BFF;" d="M161.888,379.473c-0.007-7.281,1.505-11.77,4.495-13.345c3.367-1.772,7.254,0.85,7.418,0.963
						l-0.44,0.641c-0.036-0.025-3.67-2.473-6.618-0.913c-2.712,1.431-4.083,5.689-4.076,12.653L161.888,379.473z"/>
				</g>
			</g>
			<g style="opacity:0.2;">
				<g>
					<path d="M164.93,381.054l-0.777-0.052c1.563-23.175-1.885-30.705-5.053-32.94c-1.86-1.314-3.505-0.624-3.521-0.616l-0.31-0.714
						c0.084-0.035,2.065-0.867,4.279,0.694C162.88,349.777,166.517,357.518,164.93,381.054z"/>
				</g>
				<g>
					<path d="M160.527,378.709c-0.765-19.715,2.652-27.07,5.654-29.768c1.873-1.684,3.496-1.467,3.565-1.46l-0.109,0.771
						c-0.054-0.009-1.376-0.157-2.978,1.306c-2.857,2.611-6.105,9.782-5.355,29.12L160.527,378.709z"/>
				</g>
				<g>
					<path d="M163.85,378.72l-0.777-0.053c0.802-11.843-0.66-18.891-4.228-20.381c-4.656-1.945-11.612,5.843-11.681,5.921
						l-0.584-0.515c0.299-0.339,7.394-8.282,12.564-6.124C163.105,359.221,164.688,366.338,163.85,378.72z"/>
				</g>
				<g>
					<path d="M161.888,379.473c-0.007-7.281,1.505-11.77,4.495-13.345c3.367-1.772,7.254,0.85,7.418,0.963l-0.44,0.641
						c-0.036-0.025-3.67-2.473-6.618-0.913c-2.712,1.431-4.083,5.689-4.076,12.653L161.888,379.473z"/>
				</g>
			</g>
		</g>
		<polygon style="fill:#263238;" points="144.296,377.385 148.965,415.018 177.535,415.018 182.204,377.385 		"/>
		<g>
			<path style="fill:#407BFF;" d="M156.973,346.937c0,0,7.886-13.25-5.991-13.444s-24.348,14.299-24.348,14.299
				s18.868,18.131,31.659,13.775C171.085,357.211,156.973,346.937,156.973,346.937z"/>
			<path style="opacity:0.4;fill:#FFFFFF;" d="M156.973,346.937c0,0,7.886-13.25-5.991-13.444s-24.348,14.299-24.348,14.299
				s18.868,18.131,31.659,13.775C171.085,357.211,156.973,346.937,156.973,346.937z"/>
			<path style="opacity:0.5;fill:#FFFFFF;" d="M153.854,346.841c0,0,1.15-10.379-0.916-9.972c-2.066,0.408-1.149,8.3-1.149,8.3
				s-7.981-8.387-9.366-7.017c-1.385,1.37,7.026,7.785,7.026,7.785s-18.221-1.033-18.24,1.055
				c-0.018,2.088,18.391,0.725,18.391,0.725s-7.619,5.883-6.818,7.44c0.802,1.556,9.598-6.929,9.598-6.929s3.388,9.576,5.427,9.073
				C159.845,356.799,153.854,346.841,153.854,346.841z"/>
		</g>
		<g>
			<path style="fill:#407BFF;" d="M168.398,348.148c0,0-9.21-8.294,2.654-10.659c11.863-2.365,23.727,7.679,23.727,7.679
				s-12.575,17.651-24.412,16.167C158.529,359.852,168.398,348.148,168.398,348.148z"/>
			<path style="opacity:0.3;fill:#FFFFFF;" d="M168.398,348.148c0,0-9.21-8.294,2.654-10.659
				c11.863-2.365,23.727,7.679,23.727,7.679s-12.575,17.651-24.412,16.167C158.529,359.852,168.398,348.148,168.398,348.148z"/>
			<path style="opacity:0.5;fill:#FFFFFF;" d="M171.784,347.618c0,0-4.262-7.266-2.197-6.859c2.066,0.408,4.262,5.187,4.262,5.187
				s4.869-6.83,6.253-5.461c1.385,1.37-3.914,6.228-3.914,6.228s14.331-2.59,14.349-0.501c0.019,2.088-14.5,2.282-14.5,2.282
				s6.841,5.105,6.04,6.662c-0.802,1.556-8.819-6.151-8.819-6.151s-3.388,9.576-5.427,9.073
				C165.792,357.576,171.784,347.618,171.784,347.618z"/>
		</g>
		<g>
			<path style="fill:#407BFF;" d="M172.375,366.769c0,0-15.591,3.757-5.533,13.319c10.059,9.562,27.586,6.026,27.586,6.026
				s-1.549-26.121-13.899-31.605C168.179,349.025,172.375,366.769,172.375,366.769z"/>
			<path style="opacity:0.5;fill:#FFFFFF;" d="M175.413,368.066c0,0-10.614,6.086-8.809,7.171c1.804,1.085,9.217-4.546,9.217-4.546
				s1.327,11.977,3.273,11.892c1.946-0.085-1.023-10.889-1.023-10.889s11.518,13.405,12.934,11.87
				c1.416-1.535-11.85-13.291-11.85-13.291s7.785,0.181,8.236-1.511c0.451-1.692-9.952-0.735-9.952-0.735s3.261-8.902,1.413-9.898
				S175.413,368.066,175.413,368.066z"/>
		</g>
		<g>
			<path style="fill:#407BFF;" d="M148.161,363.001c0,0-8.356-13.812-14.488-1.362c-6.132,12.45,2.464,28.129,2.464,28.129
				s24.475-9.259,26.031-22.682C163.724,353.663,148.161,363.001,148.161,363.001z"/>
			<path style="opacity:0.5;fill:#FFFFFF;" d="M146.313,364.946c0,0-8.365-7.061-8.949-5.038c-0.584,2.023,6.517,6.108,6.517,6.108
				s-9.727,3.968-9.143,5.826c0.584,1.858,8.754-3.394,8.754-3.394s-7.879,16.438-6.031,17.411c1.848,0.973,7.683-16.73,7.683-16.73
				s4.768,8.268,6.518,8.268c1.751,0-4.791-10.505-4.791-10.505s10.044,0.778,10.53-1.264
				C157.888,363.585,146.313,364.946,146.313,364.946z"/>
		</g>
	</g>
</g>
<g id="Device">
	<g>
		<g>
			<g>
				<g>
					<path style="fill:#263238;" d="M207.686,191.023h-4.574c-3.957,0-6.885,3.208-6.538,7.165l3.909,44.682
						c0.346,3.957,3.835,7.165,7.792,7.165h4.574L207.686,191.023z"/>
					<polygon style="fill:#263238;" points="251.575,267.742 237.859,267.742 240.359,239.157 254.076,239.157 					"/>
					<g>
						<path style="fill:#407BFF;" d="M286.016,250.036H211.4c-3.957,0-7.446-3.208-7.792-7.165l-3.909-44.682
							c-0.346-3.957,2.581-7.165,6.538-7.165h74.615c3.957,0,7.446,3.208,7.792,7.165l3.909,44.682
							C292.9,246.828,289.973,250.036,286.016,250.036z"/>
					</g>
					<path style="opacity:0.7;fill:#FFFFFF;" d="M281.105,193.909H206.49c-2.36,0-4.112,1.92-3.906,4.28l3.909,44.682
						c0.206,2.36,2.295,4.279,4.654,4.279h74.615c2.36,0,4.112-1.92,3.906-4.279l-3.909-44.682
						C285.553,195.829,283.465,193.909,281.105,193.909z"/>
					<polygon style="opacity:0.4;fill:#FFFFFF;" points="240.805,252.295 239.454,267.742 251.575,267.742 252.926,252.295 					"/>
					<g>
						<path style="fill:#407BFF;" d="M269.82,271.733h-23.79c-1.571,0-2.844-1.273-2.844-2.844l0,0c0-1.571,1.273-2.844,2.844-2.844
							h23.79c1.571,0,2.844,1.273,2.844,2.844l0,0C272.664,270.459,271.39,271.733,269.82,271.733z"/>
						<g>
							<path style="fill:#407BFF;" d="M247.5,271.733h-23.79c-1.571,0-2.844-1.273-2.844-2.844l0,0c0-1.571,1.273-2.844,2.844-2.844
								h23.79c1.571,0,2.844,1.273,2.844,2.844l0,0C250.344,270.459,249.071,271.733,247.5,271.733z"/>
						</g>
						<g style="opacity:0.5;">
							<path style="fill:#FFFFFF;" d="M247.5,271.733h-23.79c-1.571,0-2.844-1.273-2.844-2.844l0,0c0-1.571,1.273-2.844,2.844-2.844
								h23.79c1.571,0,2.844,1.273,2.844,2.844l0,0C250.344,270.459,249.071,271.733,247.5,271.733z"/>
						</g>
					</g>
				</g>
				<g>
					<path style="opacity:0.8;fill:#FFFFFF;" d="M273.416,236.054h-16.221c-4.682,0-8.811-3.796-9.22-8.478l-1.419-16.221
						c-0.41-4.682,3.054-8.478,7.737-8.478h16.221c4.682,0,8.81,3.796,9.22,8.478l1.419,16.221
						C281.562,232.258,278.098,236.054,273.416,236.054z"/>
					<path style="fill:#263238;" d="M238.421,236.054H222.2c-4.682,0-8.81-3.796-9.22-8.478l-1.419-16.221
						c-0.41-4.682,3.054-8.478,7.737-8.478h16.221c4.682,0,8.81,3.796,9.22,8.478l1.419,16.221
						C246.567,232.258,243.103,236.054,238.421,236.054z"/>
				</g>
			</g>
			<g>
				<path style="fill:#407BFF;" d="M318.59,272.449h-17.819c-1.177,0-2.13-0.954-2.13-2.13l0,0c0-1.177,0.954-2.13,2.13-2.13h17.819
					c1.176,0,2.13,0.954,2.13,2.13l0,0C320.72,271.496,319.766,272.449,318.59,272.449z"/>
				<path style="opacity:0.3;fill:#FFFFFF;" d="M318.59,272.449h-17.819c-1.177,0-2.13-0.954-2.13-2.13l0,0
					c0-1.177,0.954-2.13,2.13-2.13h17.819c1.176,0,2.13,0.954,2.13,2.13l0,0C320.72,271.496,319.766,272.449,318.59,272.449z"/>
				<g>
					<path style="fill:#407BFF;" d="M301.872,272.449h-17.819c-1.176,0-2.13-0.954-2.13-2.13l0,0c0-1.177,0.954-2.13,2.13-2.13
						h17.819c1.177,0,2.13,0.954,2.13,2.13l0,0C304.002,271.496,303.049,272.449,301.872,272.449z"/>
					<path style="opacity:0.5;fill:#FFFFFF;" d="M301.872,272.449h-17.819c-1.176,0-2.13-0.954-2.13-2.13l0,0
						c0-1.177,0.954-2.13,2.13-2.13h17.819c1.177,0,2.13,0.954,2.13,2.13l0,0C304.002,271.496,303.049,272.449,301.872,272.449z"/>
				</g>
			</g>
			<g>
				<path style="fill:#263238;" d="M281.142,272.449c-0.718,0-1.287-0.635-1.2-1.347c0.411-3.337,2.456-4.959,6.228-4.959
					c3.68,0,7.797,1.543,8.834,4.716c0.255,0.781-0.324,1.59-1.145,1.59H281.142z"/>
				<path style="opacity:0.5;fill:#FFFFFF;" d="M281.142,272.449c-0.718,0-1.287-0.635-1.2-1.347
					c0.411-3.337,2.456-4.959,6.228-4.959c3.68,0,7.797,1.543,8.834,4.716c0.255,0.781-0.324,1.59-1.145,1.59H281.142z"/>
			</g>
		</g>
		<g>
			<g>
				<polygon style="fill:#263238;" points="272.879,213.374 274.419,208.283 269.502,210.268 				"/>
			</g>
			<path style="fill:#263238;" d="M255.587,225.304l-1.661,1.821c-0.608,0.666-0.513,1.745,0.211,2.411l0.966,0.888
				c0.724,0.666,1.803,0.666,2.411,0l1.661-1.821L255.587,225.304z"/>
			<path style="fill:#263238;" d="M259.244,217.639c0.769,0.848,1.871,1.941,3.432,3.376c6.516,5.992,12.472,10.11,13.303,9.199
				c0.831-0.911-3.777-6.507-10.293-12.498c-1.561-1.435-2.741-2.442-3.65-3.136L259.244,217.639z"/>
			<g>
				<path style="fill:#263238;" d="M262.272,221.456c-0.635-0.584-1.2-1.117-1.706-1.608l-4.575,5.014l3.588,3.299l4.574-5.013
					C263.53,222.6,262.902,222.036,262.272,221.456z"/>
				<path style="fill:#263238;" d="M266.09,217.273c0.63,0.579,1.245,1.158,1.844,1.733l4.648-5.093l-3.588-3.299l-4.648,5.094
					C264.877,216.171,265.455,216.689,266.09,217.273z"/>
			</g>
			<path style="fill:#263238;" d="M257.684,215.3c0.073,0.404,0.385,0.969,1.126,1.845l2.698-2.956
				c-0.934-0.664-1.522-0.927-1.929-0.964L257.684,215.3z"/>
			<g>
				<path style="fill:#263238;" d="M259.458,212.386c-0.133-0.366-0.356-0.744-0.683-1.121c-1.31-1.511-6.714-2.398-6.714-2.398
					s2.219,4.29,3.158,5.373c0.476,0.549,1.047,0.879,1.642,0.991L259.458,212.386z"/>
			</g>
		</g>
		<g>
			<g>
				<polygon style="fill:#FFFFFF;" points="237.669,213.374 239.209,208.283 234.292,210.268 				"/>
			</g>
			<path style="fill:#FFFFFF;" d="M220.377,225.304l-1.661,1.821c-0.608,0.666-0.513,1.745,0.211,2.411l0.966,0.888
				c0.724,0.666,1.803,0.666,2.411,0l1.661-1.821L220.377,225.304z"/>
			<path style="fill:#FFFFFF;" d="M224.033,217.639c0.769,0.848,1.871,1.941,3.432,3.376c6.516,5.992,12.472,10.11,13.303,9.199
				c0.831-0.911-3.777-6.507-10.293-12.498c-1.561-1.435-2.741-2.442-3.65-3.136L224.033,217.639z"/>
			<g>
				<path style="fill:#FFFFFF;" d="M227.062,221.456c-0.635-0.584-1.2-1.117-1.706-1.608l-4.575,5.014l3.588,3.299l4.574-5.013
					C228.32,222.6,227.691,222.036,227.062,221.456z"/>
				<path style="fill:#FFFFFF;" d="M230.88,217.273c0.63,0.579,1.245,1.158,1.844,1.733l4.648-5.093l-3.588-3.299l-4.648,5.094
					C229.666,216.171,230.244,216.689,230.88,217.273z"/>
			</g>
			<path style="fill:#FFFFFF;" d="M222.474,215.3c0.073,0.404,0.385,0.969,1.126,1.845l2.698-2.956
				c-0.934-0.664-1.522-0.927-1.929-0.964L222.474,215.3z"/>
			<g>
				<path style="fill:#FFFFFF;" d="M224.248,212.386c-0.133-0.366-0.356-0.744-0.683-1.121c-1.31-1.511-6.714-2.398-6.714-2.398
					s2.219,4.29,3.158,5.373c0.476,0.549,1.047,0.879,1.642,0.991L224.248,212.386z"/>
			</g>
		</g>
	</g>
</g>
<g id="Character">
	<g>
		<g>
			<polygon style="fill:#B97964;" points="345.004,263.605 325.528,266.267 317.63,262.051 309.544,265.28 308.457,269.855 
				315.021,269.425 320.051,271.513 325.575,271.286 346.926,272.563 			"/>
			<path style="fill:#407BFF;" d="M344.017,273.287c2.264,0.025,4.108-0.13,5.086-0.574c4.288-1.947,15.242-18.421,20.27-26.938
				c2.076-3.516,3.185-10.449-3.062-17.873c-0.512-0.609-1.445-0.628-1.963-0.024c-2.719,3.169-6.92,9.497-19.678,32.714
				l-2.773,0.59L344.017,273.287z"/>
			<g>
				<path style="fill:#407BFF;" d="M340.116,261.142l3.547-0.851c0,0,0.071,6.739,3.263,13.548h-4.824
					C342.102,273.84,339.265,268.378,340.116,261.142z"/>
				<path style="opacity:0.4;fill:#FFFFFF;" d="M340.116,261.142l3.547-0.851c0,0,0.071,6.739,3.263,13.548h-4.824
					C342.102,273.84,339.265,268.378,340.116,261.142z"/>
			</g>
		</g>
		<g>
			<path style="fill:#A24E3F;" d="M337.481,203.873l-2.911,4.575c0,0,1.517,1.119,3.641,0.357L337.481,203.873z"/>
			<path style="fill:#1A2E35;" d="M335.727,202.519c-0.006,0.59,0.294,1.074,0.681,1.079c0.387,0.005,0.732-0.494,0.722-1.068
				c-0.01-0.574-0.294-1.074-0.682-1.073C336.06,201.459,335.739,201.93,335.727,202.519z"/>
			<path style="fill:#1A2E35;" d="M338.567,200.561c-0.103,0.011-0.206-0.029-0.275-0.107c-0.487-0.612-1.238-0.952-2.019-0.914
				c-0.168,0.021-0.321-0.097-0.344-0.264c-0.018-0.169,0.101-0.322,0.27-0.346c0.988-0.07,1.947,0.349,2.566,1.122
				c0.111,0.13,0.096,0.326-0.034,0.437l-0.001,0.001C338.683,200.528,338.627,200.553,338.567,200.561z"/>
			<path style="fill:#B97964;" d="M358.507,199.549c0.26,7.847,0.54,11.169-3.021,15.546c-5.636,4.647-15.066,5.194-17.664-2.424
				c-2.341-6.853-2.373-18.507,4.974-22.38c5.238-2.758,11.72-0.749,14.478,4.489C358.05,196.253,358.472,197.885,358.507,199.549z"
				/>
			<path style="opacity:0.2;" d="M347.486,218.436l-0.057-0.385c-0.126-0.849-0.966-1.398-1.794-1.171l-3.19,0.874
				C343.978,218.398,345.711,218.605,347.486,218.436z"/>
			<polygon style="fill:#B97964;" points="347.193,216.454 348.913,228.109 358.646,226.094 355.529,214.165 			"/>
			<path style="fill:#263238;" d="M346.154,206.472l-4.704-2.69c0,0,0.785-4.599,0.739-6.146c-0.03-1.041-0.019-3.347-0.739-4.099
				c-1.481-1.546-5.078-1.142-4.32-7.392c0.758-6.25,4.589,0,4.589,0s1.194-3.405,3.285-2.778c2.091,0.627,3.435,2.643,3.435,2.643
				s17.405,1.747,12.768,11.424c0,0,4.932,5.45-5.172,18.662c0,0-0.879-2.389-5.176,0L346.154,206.472z"/>
			<path style="fill:#263238;" d="M359.944,198.923c0,0,7.092-3.853,6.106-6.451C365.064,189.873,359.944,198.923,359.944,198.923z"
				/>
			<path style="fill:#B97964;" d="M342.301,204.12c-0.282,1.579,0.077,3.205,0.998,4.519c1.234,1.734,3.199,0.961,3.985-0.89
				c0.712-1.677,0.913-4.585-0.873-5.669C344.624,200.995,342.667,202.192,342.301,204.12z"/>
			<path style="fill:#263238;" d="M340.755,191.839c0,0-3.218,4.354-6.444,0C331.086,187.485,338.419,193.55,340.755,191.839z"/>
		</g>
		<path style="fill:#407BFF;" d="M361.809,226.237l-1.818-5.53c-0.195-0.595-0.721-1.03-1.427-1.2
			c-2.085-0.503-6.739-1.206-14.528,0.894c-1.785,0.481-3.596,1.96-3.051,2.655l2.494,3.182H361.809z"/>
		<path style="opacity:0.1;" d="M360.659,222.736c-6.725-1.554-13.947-0.335-19.193,0.931l2.014,2.57h18.329L360.659,222.736z"/>
		<g>
			<g>
				<polygon style="fill:#B97964;" points="335.307,383.478 339.211,402.394 346.913,401.254 345.062,382.837 				"/>
				<polygon style="opacity:0.2;" points="346.281,394.971 345.062,382.837 335.307,383.478 337.747,395.302 				"/>
			</g>
			<g>
				<path style="fill:#407BFF;" d="M335.745,403.585c-0.997,0.12-2.05,0.061-2.432-0.328c-0.201-0.23-0.235-0.562-0.085-0.828
					c0.107-0.237,0.303-0.422,0.545-0.517c1.295-0.529,4.285,0.733,4.417,0.789c0.074,0.032,0.121,0.106,0.116,0.187
					c-0.006,0.08-0.059,0.148-0.135,0.174C337.379,403.307,336.567,403.482,335.745,403.585z M334.282,402.177
					c-0.123,0.012-0.244,0.043-0.358,0.091c-0.155,0.046-0.281,0.16-0.341,0.31c-0.112,0.254-0.049,0.362,0.013,0.42
					c0.434,0.478,2.46,0.247,3.93-0.117C336.498,402.444,335.397,402.205,334.282,402.177z"/>
				<path style="fill:#407BFF;" d="M338.141,403.063c-0.026,0.011-0.054,0.012-0.08,0.002c-1.01-0.31-3.147-1.818-3.084-2.741
					c-0.007-0.22,0.125-0.504,0.642-0.619c0.377-0.086,0.773-0.015,1.096,0.198c1.122,0.717,1.596,2.855,1.619,2.954
					c0.013,0.068-0.012,0.138-0.065,0.182C338.232,403.063,338.186,403.072,338.141,403.063z M335.79,400.05l-0.11,0.003
					c-0.338,0.07-0.344,0.21-0.352,0.261c0.016,0.55,1.444,1.759,2.508,2.227c-0.204-0.898-0.679-1.712-1.361-2.331
					C336.273,400.076,336.03,400.019,335.79,400.05L335.79,400.05z"/>
				<path style="fill:#263238;" d="M338.856,401.841l8.756-1.051c0.33-0.04,0.644,0.154,0.755,0.468l2.438,6.934
					c0.221,0.613-0.098,1.29-0.711,1.51c-0.079,0.028-0.16,0.048-0.243,0.059c-3.163,0.324-5.991,0.488-9.92,0.965
					c-4.638,0.558-3.394,0.971-8.837,1.704c-3.28,0.438-4.329-3.224-2.959-3.575c6.279-1.568,6.71-3.572,8.895-6.149
					C337.512,402.203,338.161,401.896,338.856,401.841z"/>
			</g>
			<g>
				<g>
					<path style="fill:#263238;" d="M353.554,296.251c0,0-27.7,4.239-32.827,15.079c-3.64,7.697,14.811,77.739,14.811,77.739
						l11.108-0.473c-1.139-62.057-6.266-68.12-6.266-68.12s18.959-2.523,32.346-2.523c13.387,0,10.003-15.805,9.476-21.702
						c-0.115-1.287,0-5.17,0-5.17h-28.885L353.554,296.251z"/>
				</g>
			</g>
			<g style="opacity:0.1;">
				<g>
					<path d="M353.554,296.251c0,0-27.7,4.239-32.827,15.079c-3.64,7.697,14.811,77.739,14.811,77.739l11.108-0.473
						c-1.139-62.057-6.266-68.12-6.266-68.12s18.959-2.523,32.346-2.523c13.387,0,10.003-15.805,9.476-21.702
						c-0.115-1.287,0-5.17,0-5.17h-28.885L353.554,296.251z"/>
				</g>
			</g>
			<g>
				<polygon style="fill:#263238;" points="334.282,386.35 347.105,385.97 347.763,392.236 335.092,392.779 				"/>
			</g>
			<polygon style="opacity:0.3;fill:#FFFFFF;" points="334.282,386.35 347.105,385.97 347.763,392.236 335.092,392.779 			"/>
		</g>
		<g>
			<g>
				<polygon style="fill:#B97964;" points="307.112,387.002 313.344,405.419 320.632,404.446 316.92,384.931 				"/>
				<polygon style="opacity:0.2;" points="319.396,397.95 316.92,384.931 307.112,387.002 311.163,398.975 				"/>
			</g>
			<path style="fill:#263238;" d="M343.422,291.375c0.104,1.412-0.835,2.686-2.216,2.995c-10.262,2.299-50.194,14.166-55.352,23.473
				c-4.208,7.591,21.41,74.27,21.41,74.27l11.98-1.919c-6.677-58.914-12.767-62.786-12.767-62.786s44.055-11.126,57.674-10.249
				c13.619,0.878,10.985-21.436,10.985-21.436v-4.739h-31.743L343.422,291.375z"/>
			<g>
				<polygon style="fill:#263238;" points="305.643,389.999 319.841,387.907 320.917,393.796 307.292,396.021 				"/>
			</g>
			<polygon style="opacity:0.3;fill:#FFFFFF;" points="305.643,389.999 319.841,387.907 320.917,393.796 307.292,396.021 			"/>
			<g>
				<path style="fill:#407BFF;" d="M308.844,405.953c-1.022,0.056-2.089-0.073-2.452-0.493c-0.189-0.248-0.202-0.587-0.032-0.848
					c0.125-0.234,0.336-0.409,0.589-0.49c1.352-0.453,4.312,1.027,4.442,1.093c0.073,0.037,0.116,0.116,0.105,0.198
					c-0.011,0.081-0.07,0.147-0.149,0.168C310.525,405.777,309.688,405.902,308.844,405.953z M307.448,404.425
					c-0.126,0.005-0.251,0.028-0.37,0.069c-0.161,0.037-0.296,0.145-0.367,0.294c-0.131,0.25-0.074,0.365-0.015,0.428
					c0.411,0.514,2.486,0.413,4.006,0.139C309.685,404.842,308.582,404.526,307.448,404.425z"/>
				<path style="fill:#407BFF;" d="M311.316,405.579c-0.027,0.009-0.056,0.008-0.082-0.003c-1.007-0.382-3.082-2.056-2.957-2.991
					c0.008-0.224,0.16-0.505,0.694-0.588c0.389-0.063,0.788,0.036,1.103,0.273c1.095,0.803,1.437,3.009,1.453,3.112
					c0.009,0.07-0.021,0.139-0.078,0.181C311.409,405.585,311.361,405.591,311.316,405.579z M309.122,402.36l-0.112-0.004
					c-0.349,0.049-0.364,0.191-0.376,0.242c-0.019,0.561,1.353,1.884,2.406,2.431c-0.149-0.927-0.579-1.786-1.231-2.461
					C309.612,402.418,309.368,402.344,309.122,402.36L309.122,402.36z"/>
				<path style="fill:#263238;" d="M312.123,404.383l8.977-0.495c0.338-0.019,0.645,0.2,0.737,0.526l2.025,7.214
					c0.185,0.639-0.184,1.306-0.822,1.49c-0.082,0.024-0.166,0.039-0.251,0.044c-3.239,0.122-6.126,0.104-10.155,0.331
					c-4.754,0.264-3.517,0.766-9.102,1.154c-3.365,0.23-4.193-3.564-2.775-3.831c6.49-1.183,7.06-3.194,9.453-5.672
					C310.733,404.664,311.414,404.393,312.123,404.383z"/>
			</g>
		</g>
		<path style="fill:#407BFF;" d="M331.192,228.067c-0.015-1.576,1.274-2.855,2.865-2.825c0,0,17.333-1.599,25.252-0.122
			c5.867,1.094,11.395,3.382,14.308,8.541c5.668,10.036,9.086,19.36,8.967,58.003l-39.2-0.1c0,0-0.853-6.977-3.297-19.382
			C337.376,258.417,331.321,241.342,331.192,228.067z"/>
		<path style="opacity:0.2;" d="M332.758,236.495c0.762,5.548,1.985,11.437,3.292,17.259c7.688-14.594,2.068-21.628,2.068-21.628
			L332.758,236.495z"/>
		<g>
			<path style="fill:#B97964;" d="M313.384,258.388l-19.057,4.374l-7.897-3.977l-7.29,2.911c-0.496,0.198-0.856,0.636-0.955,1.161
				l-0.452,2.398c-0.217,1.151,0.865,2.123,1.986,1.784l2.908-0.88l6.224,2.088l5.524-0.227l21.351,1.277L313.384,258.388z"/>
			<path style="fill:#407BFF;" d="M312.816,269.544c2.264,0.025,4.108-0.13,5.086-0.574c4.288-1.947,15.242-18.421,20.27-26.938
				c1.815-3.075,2.892-8.764-1.047-15.109c-1.356-2.185-4.546-2.221-6.038-0.127c-2.894,4.064-7.638,11.891-17.618,30.053
				l-2.773,0.59L312.816,269.544z"/>
			<g>
				<path style="fill:#407BFF;" d="M308.915,257.399l3.547-0.851c0,0,0.071,6.739,3.263,13.548h-4.823
					C310.901,270.096,308.064,264.634,308.915,257.399z"/>
				<path style="opacity:0.3;fill:#FFFFFF;" d="M308.915,257.399l3.547-0.851c0,0,0.071,6.739,3.263,13.548h-4.823
					C310.901,270.096,308.064,264.634,308.915,257.399z"/>
			</g>
		</g>
	</g>
	<g>
		<g>
			<path style="fill:#263238;" d="M393.861,415.184l-30.113-11.089l-30.441,11.097c-1.051,0.383-2.163-0.395-2.163-1.514l0,0
				c0-0.627,0.364-1.197,0.933-1.461l31.671-14.695l31.352,14.694c0.566,0.265,0.927,0.833,0.927,1.457l0,0
				C396.026,414.793,394.911,415.571,393.861,415.184z"/>
			<path style="opacity:0.5;fill:#FFFFFF;" d="M393.861,415.184l-30.113-11.089l-30.441,11.097
				c-1.051,0.383-2.163-0.395-2.163-1.514l0,0c0-0.627,0.364-1.197,0.933-1.461l31.671-14.695l31.352,14.694
				c0.566,0.265,0.927,0.833,0.927,1.457l0,0C396.026,414.793,394.911,415.571,393.861,415.184z"/>
			<polygon style="opacity:0.2;" points="356.652,406.682 363.748,404.095 370.519,406.589 370.519,400.696 363.748,397.523 
				356.652,400.816 			"/>
			<path style="fill:#263238;" d="M363.585,415.441L363.585,415.441c-1.379,0-2.531-1.048-2.662-2.42l-0.85-8.926v-74.089h7.024
				v74.089l-0.85,8.926C366.116,414.393,364.964,415.441,363.585,415.441z"/>
			<path style="opacity:0.5;fill:#FFFFFF;" d="M363.585,415.441L363.585,415.441c-1.379,0-2.531-1.048-2.662-2.42l-0.85-8.926
				v-74.089h7.024v74.089l-0.85,8.926C366.116,414.393,364.964,415.441,363.585,415.441z"/>
			<rect x="360.073" y="330.005" style="opacity:0.2;" width="7.024" height="8.628"/>
		</g>
		<g>
			<g>
				<path style="fill:#407BFF;" d="M412.437,320.872c-7.946-2.027-16.111-3.141-24.299-3.346
					c-8.438-0.212-40.022-0.032-47.523-0.035c-9.13-0.004-18.26,1.122-27.118,3.381c-5.568,1.42-3.852,9.456,1.177,9.549
					c0.444,0.008,95.922-0.021,96.273-0.005C416.208,330.655,418.127,322.323,412.437,320.872z"/>
				<path style="opacity:0.5;" d="M412.437,320.872c-7.946-2.027-16.111-3.141-24.299-3.346c-8.438-0.212-40.022-0.032-47.523-0.035
					c-9.13-0.004-18.26,1.122-27.118,3.381c-5.568,1.42-3.852,9.456,1.177,9.549c0.444,0.008,95.922-0.021,96.273-0.005
					C416.208,330.655,418.127,322.323,412.437,320.872z"/>
			</g>
			<g>
				<path style="fill:#407BFF;" d="M316.082,330.25c16.039-4.09,33.027-4.09,49.066,0c6.067,1.547,8.655-7.83,2.585-9.378
					c-17.716-4.518-36.521-4.518-54.237,0C307.436,322.418,310.005,331.799,316.082,330.25L316.082,330.25z"/>
			</g>
			<g style="opacity:0.2;">
				<path d="M316.082,330.25c16.039-4.09,33.027-4.09,49.066,0c6.067,1.547,8.655-7.83,2.585-9.378
					c-17.716-4.518-36.521-4.518-54.237,0C307.436,322.418,310.005,331.799,316.082,330.25L316.082,330.25z"/>
			</g>
		</g>
		<path style="fill:#407BFF;" d="M400.957,252.095L400.957,252.095c-12.345,0-23.581,10.007-25.097,22.352l-5.824,47.43
			c-0.379,3.083,2.027,5.802,5.133,5.802h7.168h25.464h7.168c3.555,0,6.552-2.651,6.985-6.18l5.777-47.053
			c1.516-12.345-7.263-22.352-19.607-22.352h0H400.957z"/>
		<path style="opacity:0.2;" d="M400.957,252.095L400.957,252.095c-12.345,0-23.581,10.007-25.097,22.352l-5.824,47.43
			c-0.379,3.083,2.027,5.802,5.133,5.802h7.168h25.464h7.168c3.555,0,6.552-2.651,6.985-6.18l5.777-47.053
			c1.516-12.345-7.263-22.352-19.607-22.352h0H400.957z"/>
		<path style="fill:#407BFF;" d="M414.97,327.679h-32.632c-3.106,0-5.512-2.719-5.134-5.802l5.824-47.43
			c1.516-12.345,12.752-22.352,25.096-22.352l0,0c12.345,0,21.123,10.007,19.608,22.352l-5.777,47.053
			C421.522,325.028,418.525,327.679,414.97,327.679z"/>
		<path style="opacity:0.4;" d="M414.97,327.679h-32.632c-3.106,0-5.512-2.719-5.134-5.802l5.824-47.43
			c1.516-12.345,12.752-22.352,25.096-22.352l0,0c12.345,0,21.123,10.007,19.608,22.352l-5.777,47.053
			C421.522,325.028,418.525,327.679,414.97,327.679z"/>
	</g>
</g>
<g id="Icon_3">
	<g>
		<g>
			<rect x="279.888" y="84.852" style="fill:#407BFF;" width="79.576" height="86.829"/>
			<rect x="279.888" y="84.852" style="opacity:0.7;fill:#FFFFFF;" width="79.576" height="86.829"/>
		</g>
		<g>
			<polygon style="fill:#FFFFFF;" points="349.527,108.981 355.876,92.703 339.598,99.051 			"/>
		</g>
		<path style="fill:#407BFF;" d="M290.896,147.132l-5.822,5.822c-2.129,2.129-2.129,5.581,0,7.71l2.841,2.84
			c2.129,2.129,5.581,2.129,7.71,0l5.822-5.822L290.896,147.132z"/>
		<path style="fill:#407BFF;" d="M304.732,122.619c2.221,2.713,5.44,6.206,10.029,10.795c19.159,19.159,37.053,32.329,39.967,29.416
			c2.913-2.913-10.257-20.807-29.416-39.966c-4.589-4.589-8.082-7.809-10.795-10.029L304.732,122.619z"/>
		<g>
			<path style="fill:#263238;" d="M313.347,134.828c-1.868-1.868-3.524-3.571-5.005-5.142l-16.032,16.032l10.551,10.551
				l16.029-16.029C317.051,138.486,315.199,136.68,313.347,134.828z"/>
			<path style="fill:#263238;" d="M326.726,121.45c1.852,1.852,3.658,3.703,5.412,5.542l16.286-16.286l-10.551-10.55l-16.289,16.289
				C323.155,117.926,324.858,119.582,326.726,121.45z"/>
		</g>
		<path style="fill:#FFFFFF;" d="M300.4,115.14c0.119,1.292,0.961,3.1,3.083,5.899l9.454-9.454c-2.8-2.122-4.608-2.964-5.899-3.083
			L300.4,115.14z"/>
		<g>
			<path style="fill:#263238;" d="M306.888,105.823c-0.323-1.169-0.93-2.379-1.87-3.584c-3.768-4.831-20.797-7.668-20.797-7.668
				s5.896,13.718,8.595,17.18c1.368,1.754,3.103,2.81,4.974,3.169L306.888,105.823z"/>
		</g>
	</g>
</g>
<g id="Icon_2">
	<g>
		<rect x="196.264" y="84.852" style="fill:#407BFF;" width="79.576" height="86.829"/>
		<rect x="196.264" y="84.852" style="opacity:0.7;fill:#FFFFFF;" width="79.576" height="86.829"/>
		<g>
			<g>
				<path style="fill:#263238;" d="M218.286,99.172c-3.586,3.586-7.172,7.172-10.758,10.758c-0.342,0.342,0.188,0.872,0.53,0.53
					c3.586-3.586,7.172-7.172,10.758-10.758C219.158,99.361,218.628,98.83,218.286,99.172L218.286,99.172z"/>
			</g>
			<g>
				<path style="fill:#263238;" d="M265.356,146.242c-3.586,3.586-7.172,7.172-10.758,10.758c-0.342,0.342,0.188,0.872,0.53,0.53
					c3.586-3.586,7.172-7.172,10.758-10.758C266.228,146.431,265.698,145.9,265.356,146.242L265.356,146.242z"/>
			</g>
			<g>
				<path style="fill:#263238;" d="M264.456,110.616c-3.584-3.584-7.169-7.169-10.753-10.753c-0.342-0.342-0.872,0.188-0.53,0.53
					c3.585,3.585,7.169,7.169,10.753,10.753C264.267,111.488,264.798,110.958,264.456,110.616L264.456,110.616z"/>
			</g>
			<g>
				<path style="fill:#263238;" d="M217.386,157.686c-3.585-3.585-7.17-7.169-10.754-10.754c-0.342-0.342-0.872,0.189-0.53,0.53
					c3.585,3.585,7.17,7.169,10.754,10.754C217.198,158.558,217.728,158.028,217.386,157.686L217.386,157.686z"/>
			</g>
			<g style="opacity:0.5;">
				<path style="fill:#FFFFFF;" d="M218.286,99.172c-3.586,3.586-7.172,7.172-10.758,10.758c-0.342,0.342,0.188,0.872,0.53,0.53
					c3.586-3.586,7.172-7.172,10.758-10.758C219.158,99.361,218.628,98.83,218.286,99.172L218.286,99.172z"/>
			</g>
			<g style="opacity:0.5;">
				<path style="fill:#FFFFFF;" d="M265.356,146.242c-3.586,3.586-7.172,7.172-10.758,10.758c-0.342,0.342,0.188,0.872,0.53,0.53
					c3.586-3.586,7.172-7.172,10.758-10.758C266.228,146.431,265.698,145.9,265.356,146.242L265.356,146.242z"/>
			</g>
			<g style="opacity:0.5;">
				<path style="fill:#FFFFFF;" d="M264.456,110.616c-3.584-3.584-7.169-7.169-10.753-10.753c-0.342-0.342-0.872,0.188-0.53,0.53
					c3.585,3.585,7.169,7.169,10.753,10.753C264.267,111.488,264.798,110.958,264.456,110.616L264.456,110.616z"/>
			</g>
			<g style="opacity:0.5;">
				<path style="fill:#FFFFFF;" d="M217.386,157.686c-3.585-3.585-7.17-7.169-10.754-10.754c-0.342-0.342-0.872,0.189-0.53,0.53
					c3.585,3.585,7.17,7.169,10.754,10.754C217.198,158.558,217.728,158.028,217.386,157.686L217.386,157.686z"/>
			</g>
			<path style="fill:#263238;" d="M247.626,127.981c5.325-5.324,10.649-10.649,15.973-15.973c2.669-2.669,5.338-5.338,8.007-8.007
				c0.342-0.342-0.188-0.872-0.53-0.53c-7.993,7.993-15.986,15.987-23.98,23.98c-3.409-3.409-6.819-6.819-10.228-10.228
				c6.525-6.525,13.05-13.05,19.575-19.575c2.671-2.671,5.342-5.342,8.013-8.014c0.342-0.342-0.188-0.872-0.53-0.53
				c-9.196,9.196-18.393,18.393-27.589,27.589c-6.601-6.601-13.203-13.203-19.804-19.804c-2.6-2.6-5.201-5.201-7.801-7.801
				c-0.342-0.342-0.872,0.188-0.53,0.53c9.202,9.202,18.403,18.404,27.605,27.605c-3.409,3.409-6.819,6.819-10.228,10.228
				c-5.547-5.547-11.094-11.094-16.642-16.642c-2.66-2.66-5.32-5.32-7.98-7.98c-0.342-0.342-0.872,0.188-0.53,0.53
				c8.207,8.207,16.414,16.414,24.621,24.621c-5.536,5.536-11.072,11.072-16.608,16.608c-2.671,2.671-5.342,5.342-8.014,8.014
				c-0.342,0.342,0.188,0.872,0.53,0.53c8.207-8.207,16.414-16.414,24.622-24.622c3.409,3.409,6.819,6.819,10.228,10.228
				c-6.723,6.723-13.446,13.446-20.169,20.169c-2.669,2.669-5.338,5.338-8.007,8.007c-0.342,0.342,0.188,0.872,0.53,0.53
				c9.392-9.392,18.784-18.784,28.176-28.176c6.733,6.733,13.467,13.467,20.2,20.2c2.66,2.66,5.32,5.32,7.98,7.98
				c0.342,0.342,0.872-0.188,0.53-0.53c-9.393-9.393-18.787-18.787-28.18-28.18c3.409-3.409,6.819-6.819,10.228-10.228
				c5.392,5.392,10.784,10.785,16.177,16.177c2.6,2.6,5.201,5.201,7.801,7.801c0.342,0.342,0.872-0.188,0.53-0.53
				C263.611,143.967,255.618,135.974,247.626,127.981z M236.337,138.209c-3.409-3.409-6.819-6.819-10.228-10.228
				c3.409-3.409,6.819-6.819,10.228-10.228c3.409,3.409,6.819,6.819,10.228,10.228C243.156,131.391,239.747,134.8,236.337,138.209z"
				/>
			<path style="opacity:0.6;fill:#FFFFFF;" d="M247.626,127.981c5.325-5.324,10.649-10.649,15.973-15.973
				c2.669-2.669,5.338-5.338,8.007-8.007c0.342-0.342-0.188-0.872-0.53-0.53c-7.993,7.993-15.986,15.987-23.98,23.98
				c-3.409-3.409-6.819-6.819-10.228-10.228c6.525-6.525,13.05-13.05,19.575-19.575c2.671-2.671,5.342-5.342,8.013-8.014
				c0.342-0.342-0.188-0.872-0.53-0.53c-9.196,9.196-18.393,18.393-27.589,27.589c-6.601-6.601-13.203-13.203-19.804-19.804
				c-2.6-2.6-5.201-5.201-7.801-7.801c-0.342-0.342-0.872,0.188-0.53,0.53c9.202,9.202,18.403,18.404,27.605,27.605
				c-3.409,3.409-6.819,6.819-10.228,10.228c-5.547-5.547-11.094-11.094-16.642-16.642c-2.66-2.66-5.32-5.32-7.98-7.98
				c-0.342-0.342-0.872,0.188-0.53,0.53c8.207,8.207,16.414,16.414,24.621,24.621c-5.536,5.536-11.072,11.072-16.608,16.608
				c-2.671,2.671-5.342,5.342-8.014,8.014c-0.342,0.342,0.188,0.872,0.53,0.53c8.207-8.207,16.414-16.414,24.622-24.622
				c3.409,3.409,6.819,6.819,10.228,10.228c-6.723,6.723-13.446,13.446-20.169,20.169c-2.669,2.669-5.338,5.338-8.007,8.007
				c-0.342,0.342,0.188,0.872,0.53,0.53c9.392-9.392,18.784-18.784,28.176-28.176c6.733,6.733,13.467,13.467,20.2,20.2
				c2.66,2.66,5.32,5.32,7.98,7.98c0.342,0.342,0.872-0.188,0.53-0.53c-9.393-9.393-18.787-18.787-28.18-28.18
				c3.409-3.409,6.819-6.819,10.228-10.228c5.392,5.392,10.784,10.785,16.177,16.177c2.6,2.6,5.201,5.201,7.801,7.801
				c0.342,0.342,0.872-0.188,0.53-0.53C263.611,143.967,255.618,135.974,247.626,127.981z M236.337,138.209
				c-3.409-3.409-6.819-6.819-10.228-10.228c3.409-3.409,6.819-6.819,10.228-10.228c3.409,3.409,6.819,6.819,10.228,10.228
				C243.156,131.391,239.747,134.8,236.337,138.209z"/>
		</g>
		<g>
			<path style="fill:#263238;" d="M273.095,91.487l-18.053,7.041l11.012,11.012L273.095,91.487z M256.832,98.903l14.503-5.656
				l-5.656,14.503L256.832,98.903z"/>
			<path style="fill:#263238;" d="M201.06,152.265c-1.125,1.124-1.744,2.619-1.744,4.208c0,1.59,0.619,3.085,1.744,4.209l2.84,2.841
				c1.124,1.124,2.619,1.743,4.208,1.743c1.59,0,3.085-0.619,4.208-1.744l6.176-6.176l-11.257-11.257L201.06,152.265z
				 M211.61,162.815c-0.935,0.936-2.179,1.451-3.501,1.451c-1.323,0-2.566-0.515-3.501-1.45l-2.84-2.841
				c-0.936-0.935-1.451-2.179-1.451-3.502c0-1.323,0.515-2.566,1.451-3.501l5.469-5.469l9.843,9.843L211.61,162.815z"/>
			<path style="fill:#263238;" d="M247.76,128.079l17.71-17.71l-11.257-11.258l-17.715,17.715c-1.999-1.872-3.768-3.442-5.324-4.716
				l-0.351-0.287l-10.425,10.425l0.287,0.351c1.273,1.556,2.842,3.325,4.715,5.324l-17.458,17.457l11.258,11.258l17.454-17.454
				c13.748,13.043,28.008,24.186,33.255,24.186c0.646,0,1.156-0.169,1.511-0.524c1.652-1.651-0.495-6.543-6.381-14.54
				C260.654,142.348,254.646,135.327,247.76,128.079z M254.213,100.526l9.843,9.844l-16.984,16.985
				c-1.644-1.719-3.336-3.45-5.067-5.18c-1.725-1.725-3.311-3.272-4.778-4.662L254.213,100.526z M246.365,128.061l-9.729,9.729
				c-1.697-1.622-3.424-3.309-5.181-5.065c-1.728-1.728-3.272-3.313-4.661-4.779l9.726-9.726c1.466,1.389,3.051,2.933,4.779,4.661
				C243.029,124.612,244.721,126.342,246.365,128.061z M221.746,122.315l9.143-9.143c1.447,1.201,3.076,2.651,4.902,4.361
				l-9.684,9.684C224.397,125.392,222.947,123.763,221.746,122.315z M219.201,155.225l-9.844-9.844l16.729-16.729
				c1.39,1.467,2.937,3.053,4.662,4.778c1.704,1.704,3.438,3.397,5.184,5.063L219.201,155.225z M270.714,162.14
				c-2.096,2.098-15.855-7.036-33.354-23.66l9.693-9.694c6.85,7.21,12.823,14.191,17.181,20.113
				C270.399,157.275,271.623,161.231,270.714,162.14z"/>
			<path style="fill:#263238;" d="M223.19,107.646l-6.97,6.97l0.021,0.233c0.14,1.52,1.152,3.476,3.183,6.156l0.346,0.457
				l10.265-10.265l-0.457-0.346c-2.68-2.031-4.636-3.043-6.156-3.183L223.19,107.646z M228.515,111.304l-8.637,8.637
				c-1.563-2.124-2.42-3.752-2.612-4.957l6.292-6.292C224.764,108.884,226.391,109.742,228.515,111.304z"/>
			<path style="fill:#263238;" d="M208.762,111.723c1.404,1.8,3.228,2.96,5.275,3.353l0.26,0.05l9.491-9.491l-0.078-0.281
				c-0.355-1.284-1.014-2.548-1.957-3.758c-3.844-4.928-20.406-7.736-21.109-7.854l-0.903-0.15l0.361,0.841
				C200.344,94.994,206.055,108.249,208.762,111.723z M220.965,102.21c0.793,1.018,1.365,2.07,1.7,3.133l-8.696,8.696
				c-1.702-0.392-3.225-1.401-4.417-2.932c-2.243-2.877-6.824-13.168-8.158-16.215C204.954,95.56,217.849,98.216,220.965,102.21z"/>
		</g>
	</g>
</g>
<g id="Icon_1">
	<g>
		<rect x="112.64" y="84.852" style="fill:#407BFF;" width="79.576" height="86.829"/>
		<rect x="112.64" y="84.852" style="opacity:0.7;fill:#FFFFFF;" width="79.576" height="86.829"/>
		<g>
			<path style="fill:#263238;" d="M134.662,99.172c-3.586,3.586-7.172,7.172-10.758,10.758c-0.342,0.342,0.188,0.872,0.53,0.53
				c3.586-3.586,7.172-7.172,10.758-10.758C135.534,99.361,135.004,98.83,134.662,99.172L134.662,99.172z"/>
		</g>
		<g>
			<path style="fill:#263238;" d="M181.732,146.242c-3.586,3.586-7.172,7.172-10.758,10.758c-0.342,0.342,0.189,0.872,0.53,0.53
				c3.586-3.586,7.172-7.172,10.758-10.758C182.604,146.431,182.074,145.9,181.732,146.242L181.732,146.242z"/>
		</g>
		<g>
			<path style="fill:#263238;" d="M180.832,110.616c-3.585-3.584-7.169-7.169-10.753-10.753c-0.342-0.342-0.872,0.188-0.53,0.53
				c3.584,3.585,7.169,7.169,10.753,10.753C180.643,111.488,181.174,110.958,180.832,110.616L180.832,110.616z"/>
		</g>
		<g>
			<path style="fill:#263238;" d="M133.762,157.686c-3.585-3.585-7.17-7.169-10.754-10.754c-0.342-0.342-0.872,0.189-0.53,0.53
				c3.585,3.585,7.17,7.169,10.754,10.754C133.574,158.558,134.104,158.028,133.762,157.686L133.762,157.686z"/>
		</g>
		<g style="opacity:0.5;">
			<path style="fill:#FFFFFF;" d="M134.662,99.172c-3.586,3.586-7.172,7.172-10.758,10.758c-0.342,0.342,0.188,0.872,0.53,0.53
				c3.586-3.586,7.172-7.172,10.758-10.758C135.534,99.361,135.004,98.83,134.662,99.172L134.662,99.172z"/>
		</g>
		<g style="opacity:0.5;">
			<path style="fill:#FFFFFF;" d="M181.732,146.242c-3.586,3.586-7.172,7.172-10.758,10.758c-0.342,0.342,0.189,0.872,0.53,0.53
				c3.586-3.586,7.172-7.172,10.758-10.758C182.604,146.431,182.074,145.9,181.732,146.242L181.732,146.242z"/>
		</g>
		<g style="opacity:0.5;">
			<path style="fill:#FFFFFF;" d="M180.832,110.616c-3.585-3.584-7.169-7.169-10.753-10.753c-0.342-0.342-0.872,0.188-0.53,0.53
				c3.584,3.585,7.169,7.169,10.753,10.753C180.643,111.488,181.174,110.958,180.832,110.616L180.832,110.616z"/>
		</g>
		<g style="opacity:0.5;">
			<path style="fill:#FFFFFF;" d="M133.762,157.686c-3.585-3.585-7.17-7.169-10.754-10.754c-0.342-0.342-0.872,0.189-0.53,0.53
				c3.585,3.585,7.17,7.169,10.754,10.754C133.574,158.558,134.104,158.028,133.762,157.686L133.762,157.686z"/>
		</g>
		<path style="fill:#263238;" d="M164.001,127.981c5.325-5.324,10.649-10.649,15.973-15.973c2.669-2.669,5.338-5.338,8.007-8.007
			c0.342-0.342-0.188-0.872-0.53-0.53c-7.993,7.993-15.986,15.987-23.98,23.98c-3.41-3.409-6.819-6.819-10.228-10.228
			c6.525-6.525,13.05-13.05,19.576-19.575c2.671-2.671,5.342-5.342,8.013-8.014c0.342-0.342-0.189-0.872-0.53-0.53
			c-9.196,9.196-18.393,18.393-27.589,27.589c-6.601-6.601-13.203-13.203-19.804-19.804c-2.6-2.6-5.201-5.201-7.801-7.801
			c-0.342-0.342-0.872,0.188-0.53,0.53c9.202,9.202,18.404,18.404,27.605,27.605c-3.409,3.409-6.819,6.819-10.228,10.228
			c-5.547-5.547-11.094-11.094-16.642-16.642c-2.66-2.66-5.32-5.32-7.98-7.98c-0.342-0.342-0.872,0.188-0.53,0.53
			c8.207,8.207,16.414,16.414,24.621,24.621c-5.536,5.536-11.072,11.072-16.608,16.608c-2.671,2.671-5.342,5.342-8.014,8.014
			c-0.342,0.342,0.188,0.872,0.53,0.53c8.207-8.207,16.415-16.414,24.622-24.622c3.409,3.409,6.819,6.819,10.228,10.228
			c-6.723,6.723-13.446,13.446-20.169,20.169c-2.669,2.669-5.338,5.338-8.007,8.007c-0.342,0.342,0.188,0.872,0.53,0.53
			c9.392-9.392,18.784-18.784,28.176-28.176c6.733,6.733,13.467,13.467,20.2,20.2c2.66,2.66,5.32,5.32,7.98,7.98
			c0.342,0.342,0.872-0.188,0.53-0.53c-9.393-9.393-18.787-18.787-28.18-28.18c3.41-3.409,6.819-6.819,10.228-10.228
			c5.392,5.392,10.784,10.785,16.177,16.177c2.6,2.6,5.201,5.201,7.801,7.801c0.342,0.342,0.872-0.188,0.531-0.53
			C179.987,143.967,171.994,135.974,164.001,127.981z M152.713,138.209c-3.41-3.409-6.819-6.819-10.228-10.228
			c3.41-3.409,6.819-6.819,10.228-10.228c3.409,3.409,6.819,6.819,10.228,10.228C159.532,131.391,156.122,134.8,152.713,138.209z"/>
		<path style="opacity:0.6;fill:#FFFFFF;" d="M164.001,127.981c5.325-5.324,10.649-10.649,15.973-15.973
			c2.669-2.669,5.338-5.338,8.007-8.007c0.342-0.342-0.188-0.872-0.53-0.53c-7.993,7.993-15.986,15.987-23.98,23.98
			c-3.41-3.409-6.819-6.819-10.228-10.228c6.525-6.525,13.05-13.05,19.576-19.575c2.671-2.671,5.342-5.342,8.013-8.014
			c0.342-0.342-0.189-0.872-0.53-0.53c-9.196,9.196-18.393,18.393-27.589,27.589c-6.601-6.601-13.203-13.203-19.804-19.804
			c-2.6-2.6-5.201-5.201-7.801-7.801c-0.342-0.342-0.872,0.188-0.53,0.53c9.202,9.202,18.404,18.404,27.605,27.605
			c-3.409,3.409-6.819,6.819-10.228,10.228c-5.547-5.547-11.094-11.094-16.642-16.642c-2.66-2.66-5.32-5.32-7.98-7.98
			c-0.342-0.342-0.872,0.188-0.53,0.53c8.207,8.207,16.414,16.414,24.621,24.621c-5.536,5.536-11.072,11.072-16.608,16.608
			c-2.671,2.671-5.342,5.342-8.014,8.014c-0.342,0.342,0.188,0.872,0.53,0.53c8.207-8.207,16.415-16.414,24.622-24.622
			c3.409,3.409,6.819,6.819,10.228,10.228c-6.723,6.723-13.446,13.446-20.169,20.169c-2.669,2.669-5.338,5.338-8.007,8.007
			c-0.342,0.342,0.188,0.872,0.53,0.53c9.392-9.392,18.784-18.784,28.176-28.176c6.733,6.733,13.467,13.467,20.2,20.2
			c2.66,2.66,5.32,5.32,7.98,7.98c0.342,0.342,0.872-0.188,0.53-0.53c-9.393-9.393-18.787-18.787-28.18-28.18
			c3.41-3.409,6.819-6.819,10.228-10.228c5.392,5.392,10.784,10.785,16.177,16.177c2.6,2.6,5.201,5.201,7.801,7.801
			c0.342,0.342,0.872-0.188,0.531-0.53C179.987,143.967,171.994,135.974,164.001,127.981z M152.713,138.209
			c-3.41-3.409-6.819-6.819-10.228-10.228c3.41-3.409,6.819-6.819,10.228-10.228c3.409,3.409,6.819,6.819,10.228,10.228
			C159.532,131.391,156.122,134.8,152.713,138.209z"/>
	</g>
</g>
<g id="Cursor">
	<g>
		<g>
			<rect x="175.209" y="191.025" style="fill:#407BFF;" width="9.137" height="9.137"/>
			<rect x="175.209" y="191.025" style="opacity:0.9;fill:#FFFFFF;" width="9.137" height="9.137"/>
			<g>
				<path style="fill:#263238;" d="M184.772,200.588h-9.988V190.6h9.988V200.588z M175.634,199.738h8.288v-8.288h-8.288V199.738z"/>
				<polygon style="fill:#263238;" points="182.965,194.957 180.415,194.957 180.415,192.407 179.14,192.407 179.14,194.957 
					176.59,194.957 176.59,196.232 179.14,196.232 179.14,198.782 180.415,198.782 180.415,196.232 182.965,196.232 				"/>
			</g>
			<g style="opacity:0.2;">
				<path style="fill:#FFFFFF;" d="M184.772,200.588h-9.988V190.6h9.988V200.588z M175.634,199.738h8.288v-8.288h-8.288V199.738z"/>
				<polygon style="fill:#FFFFFF;" points="182.965,194.957 180.415,194.957 180.415,192.407 179.14,192.407 179.14,194.957 
					176.59,194.957 176.59,196.232 179.14,196.232 179.14,198.782 180.415,198.782 180.415,196.232 182.965,196.232 				"/>
			</g>
		</g>
		<g>
			<polygon style="fill:#263238;" points="175.709,177.651 158.226,170.439 165.439,187.921 167.959,181.975 175.106,189.122 
				176.909,187.318 169.762,180.171 			"/>
			<polygon style="opacity:0.2;fill:#FFFFFF;" points="175.709,177.651 158.226,170.439 165.439,187.921 167.959,181.975 
				175.106,189.122 176.909,187.318 169.762,180.171 			"/>
		</g>
	</g>
</g>
</svg>
